<?xml version="1.0" encoding="utf-8"?>
<!-- Generator: Adobe Illustrator 15.0.0, SVG Export Plug-In . SVG Version: 6.00 Build 0)  -->
<!DOCTYPE svg PUBLIC "-//W3C//DTD SVG 1.1//EN" "http://www.w3.org/Graphics/SVG/1.1/DTD/svg11.dtd">
<svg version="1.1" id="Layer_1" xmlns="http://www.w3.org/2000/svg" xmlns:xlink="http://www.w3.org/1999/xlink" x="0px" y="0px"
	 width="251.833px" height="37.667px" viewBox="0 0 251.833 37.667" enable-background="new 0 0 251.833 37.667"
	 xml:space="preserve">
<g>
	<path fill="#1F1F1F" d="M13.983,1.693H0.905v34.796h4.598V22.577h8.479c6.544,0,10.941-4.205,10.941-10.465
		C24.924,5.879,20.527,1.693,13.983,1.693z M5.503,5.911h8.147c4.242,0,6.676,2.26,6.676,6.201c0,3.97-2.434,6.248-6.676,6.248
		H5.503V5.911z"/>
	<path fill="#1F1F1F" d="M36.709,1.693L23.905,36.489h4.904l2.707-7.643h14.067l2.707,7.643h4.904L40.438,1.693H36.709z
		 M44.191,24.723H32.959l5.658-15.876L44.191,24.723z"/>
	<path fill="#1F1F1F" d="M67.515,21.96h8.214v2.021c0,2.642-0.535,4.447-1.738,5.858c-1.424,1.726-3.604,2.717-5.98,2.717
		c-2.118,0-4.117-0.811-5.487-2.227c-1.971-2.014-2.233-4.082-2.233-11.239c0-7.117,0.262-9.177,2.234-11.194
		c1.398-1.443,3.398-2.271,5.486-2.271c3.136,0,4.867,1.179,7.342,3.654l0.35,0.35l3.121-3.121l-0.35-0.35
		c-2.933-2.933-5.707-4.75-10.463-4.75c-3.489,0-6.598,1.267-8.992,3.658c-3.326,3.326-3.326,6.902-3.326,14.024
		c0,7.125,0,10.699,3.326,14.024c2.359,2.36,5.552,3.66,8.992,3.66c3.577,0,6.876-1.44,9.287-4.051
		c2.124-2.27,3.03-4.982,3.03-9.075V17.79H67.515V21.96z"/>
	<polygon fill="#1F1F1F" points="109.572,5.911 109.572,1.693 87.596,1.693 87.596,36.489 109.572,36.489 109.572,32.271 
		92.194,32.271 92.194,21.057 107.008,21.057 107.008,16.84 92.194,16.84 92.194,5.911 	"/>
</g>
<g>
	<polygon fill="#828282" points="128.55,28.205 120.127,1.978 115.285,1.978 126.72,36.774 130.38,36.774 141.816,1.978 
		136.974,1.978 	"/>
	<path fill="#828282" d="M195.523,24.693c0,4.862-3.03,8.005-7.72,8.005c-4.662,0-7.673-3.143-7.673-8.005V1.834h-4.597v23.145
		c0,6.917,5.161,11.937,12.271,11.937c7.137,0,12.317-5.019,12.317-11.937V1.834h-4.597V24.693z"/>
	<polygon fill="#828282" points="212.229,1.978 207.632,1.978 207.632,36.774 229.513,36.774 229.513,32.556 212.229,32.556 	"/>
	<polygon fill="#828282" points="226.703,1.978 226.703,6.195 236.484,6.195 236.484,36.774 241.082,36.774 241.082,6.195 
		250.864,6.195 250.864,1.978 	"/>
</g>
<path fill="#005CAB" d="M157.326,0.963c-7.138,0-12.318,5.021-12.318,11.938v4.462v19.146h24.543V17.363v-4.462
	C169.55,5.984,164.435,0.963,157.326,0.963z M159.569,31.636l-4.579,0l1.106-6.113c-0.739-0.417-1.244-1.198-1.244-2.106
	c0-1.337,1.086-2.426,2.425-2.426c1.342-0.001,2.429,1.088,2.429,2.424c0,0.909-0.504,1.692-1.244,2.107L159.569,31.636z
	 M164.998,17.363h-15.393v-4.177c0-4.862,3.03-8.004,7.721-8.004c4.661,0,7.672,3.142,7.672,8.004V17.363z"/>
</svg>
